<?xml version="1.0" standalone="no"?>
<!DOCTYPE svg PUBLIC "-//W3C//DTD SVG 20010904//EN"
 "http://www.w3.org/TR/2001/REC-SVG-20010904/DTD/svg10.dtd">
<svg version="1.0" xmlns="http://www.w3.org/2000/svg"
 width="480.000000pt" height="480.000000pt" viewBox="0 0 480.000000 480.000000"
 preserveAspectRatio="xMidYMid meet">
<metadata>
Created by potrace 1.14, written by Peter Selinger 2001-2017
</metadata>
<g transform="translate(0.000000,480.000000) scale(0.100000,-0.100000)"
fill="#000000" stroke="none">
<path d="M625 2723 l1 -1688 23 -75 c91 -296 325 -509 611 -557 25 -5 275 -8
555 -8 l510 0 0 385 0 385 -455 0 c-250 0 -459 3 -465 7 -7 4 -10 555 -9 1622
l1 1616 -387 0 -386 0 1 -1687z"/>
<path d="M1550 4360 c-1 -64 -1 -242 0 -512 l0 -213 460 1 c318 0 460 -3 461
-10 1 -6 2 -735 3 -1621 l1 -1610 388 -3 387 -2 0 367 c0 203 1 933 3 1623 l2
1255 460 0 460 0 -3 65 c-2 65 -4 82 -14 110 -3 8 -11 35 -18 60 -40 147 -180
332 -313 414 -43 26 -145 77 -165 82 -10 2 -42 12 -72 21 -50 16 -138 18
-1047 21 l-993 3 0 -51z"/>
<path d="M1559 3479 c-10 -6 -15 -757 -6 -766 7 -7 758 -5 765 2 4 4 7 177 7
386 0 330 -2 379 -15 380 -80 4 -744 3 -751 -2z"/>
<path d="M3434 3480 l-30 -5 0 -1077 0 -1078 36 -1 c53 0 639 0 690 0 l45 1 0
1074 c0 591 -3 1077 -7 1081 -7 8 -689 12 -734 5z"/>
<path d="M1550 2500 c-3 -394 0 -1173 4 -1177 2 -3 177 -5 388 -6 l383 0 0
612 c0 398 -3 615 -10 619 -5 4 -180 7 -387 7 l-378 0 0 -55z"/>
<path d="M3411 1160 c-4 -3 -7 -177 -7 -388 l0 -382 386 2 385 3 0 385 1 385
-379 0 c-208 0 -382 -2 -386 -5z"/>
</g>
</svg>
